<svg width="143" height="28" viewBox="0 0 143 28" fill="none" xmlns="http://www.w3.org/2000/svg">
<path d="M13.5 0.771484L16.5309 10.0998H26.3393L18.4042 15.8649L21.4351 25.1932L13.5 19.428L5.5649 25.1932L8.59584 15.8649L0.660737 10.0998H10.4691L13.5 0.771484Z" fill="#DB5825"/>
<path d="M42.5 0.771484L45.5309 10.0998H55.3393L47.4042 15.8649L50.4351 25.1932L42.5 19.428L34.5649 25.1932L37.5958 15.8649L29.6607 10.0998H39.4691L42.5 0.771484Z" fill="#DB5825"/>
<path d="M71.5 0.771484L74.5309 10.0998H84.3393L76.4042 15.8649L79.4351 25.1932L71.5 19.428L63.5649 25.1932L66.5958 15.8649L58.6607 10.0998H68.4691L71.5 0.771484Z" fill="#DB5825"/>
<path d="M100.5 0.771484L103.531 10.0998H113.339L105.404 15.8649L108.435 25.1932L100.5 19.428L92.5649 25.1932L95.5958 15.8649L87.6607 10.0998H97.4691L100.5 0.771484Z" fill="#DB5825"/>
<path d="M129.5 0.771484L132.531 10.0998H142.339L134.404 15.8649L137.435 25.1932L129.5 19.428L121.565 25.1932L124.596 15.8649L116.661 10.0998H126.469L129.5 0.771484Z" fill="#DB5825"/>
</svg>
