<svg width="21" height="24" viewBox="0 0 21 24" fill="none" xmlns="http://www.w3.org/2000/svg">
<path fill-rule="evenodd" clip-rule="evenodd" d="M17.25 0.593262C18.1451 0.593262 19.0036 0.948841 19.6365 1.58178C20.2694 2.21471 20.625 3.07316 20.625 3.96826V17.4683C20.625 18.3634 20.2694 19.2218 19.6365 19.8547C19.0036 20.4877 18.1451 20.8433 17.25 20.8433H3.75C2.85489 20.8433 1.99645 20.4877 1.36351 19.8547C0.730579 19.2218 0.375 18.3634 0.375 17.4683V3.96826C0.375 3.07316 0.730579 2.21471 1.36351 1.58178C1.99645 0.948841 2.85489 0.593262 3.75 0.593262H17.25ZM6 8.46826C5.70163 8.46826 5.41548 8.58679 5.2045 8.79777C4.99353 9.00875 4.875 9.29489 4.875 9.59326V15.2183C4.875 15.5166 4.99353 15.8028 5.2045 16.0138C5.41548 16.2247 5.70163 16.3433 6 16.3433C6.29837 16.3433 6.58452 16.2247 6.7955 16.0138C7.00647 15.8028 7.125 15.5166 7.125 15.2183V9.59326C7.125 9.29489 7.00647 9.00875 6.7955 8.79777C6.58452 8.58679 6.29837 8.46826 6 8.46826ZM9.375 7.34326C9.07663 7.34326 8.79048 7.46179 8.5795 7.67277C8.36853 7.88375 8.25 8.16989 8.25 8.46826V15.2183C8.25 15.5166 8.36853 15.8028 8.5795 16.0138C8.79048 16.2247 9.07663 16.3433 9.375 16.3433C9.67337 16.3433 9.95952 16.2247 10.1705 16.0138C10.3815 15.8028 10.5 15.5166 10.5 15.2183V11.1008C10.8431 10.7138 11.4225 10.2593 12.0671 9.98364C12.4417 9.82389 13.0054 9.75864 13.3969 9.88239C13.5268 9.91534 13.6424 9.98956 13.7265 10.0939C13.785 10.1726 13.875 10.3481 13.875 10.7183V15.2183C13.875 15.5166 13.9935 15.8028 14.2045 16.0138C14.4155 16.2247 14.7016 16.3433 15 16.3433C15.2984 16.3433 15.5845 16.2247 15.7955 16.0138C16.0065 15.8028 16.125 15.5166 16.125 15.2183V10.7183C16.125 9.96451 15.9338 9.29401 15.5355 8.75626C15.169 8.26864 14.6562 7.91108 14.0719 7.73589C13.0571 7.41751 11.9333 7.59414 11.1829 7.91589C10.9426 8.01921 10.7086 8.13641 10.482 8.26689C10.4348 8.00767 10.2982 7.77323 10.0959 7.60444C9.89359 7.43565 9.63847 7.34322 9.375 7.34326ZM6 5.09326C5.70163 5.09326 5.41548 5.21179 5.2045 5.42277C4.99353 5.63375 4.875 5.91989 4.875 6.21826C4.875 6.51663 4.99353 6.80278 5.2045 7.01376C5.41548 7.22474 5.70163 7.34326 6 7.34326C6.29837 7.34326 6.58452 7.22474 6.7955 7.01376C7.00647 6.80278 7.125 6.51663 7.125 6.21826C7.125 5.91989 7.00647 5.63375 6.7955 5.42277C6.58452 5.21179 6.29837 5.09326 6 5.09326Z" fill="white"/>
</svg>
