<svg width="33" height="32" viewBox="0 0 33 32" fill="none" xmlns="http://www.w3.org/2000/svg">
<path d="M6.01331 23.9993C6.01331 22.5849 6.57521 21.2283 7.5754 20.2281C8.5756 19.2279 9.93215 18.666 11.3466 18.666H22.0133C23.4278 18.666 24.7843 19.2279 25.7845 20.2281C26.7847 21.2283 27.3466 22.5849 27.3466 23.9993C27.3466 24.7066 27.0657 25.3849 26.5656 25.885C26.0655 26.3851 25.3872 26.666 24.68 26.666H8.67997C7.97273 26.666 7.29445 26.3851 6.79435 25.885C6.29426 25.3849 6.01331 24.7066 6.01331 23.9993Z" stroke="black" stroke-width="2" stroke-linejoin="round"/>
<path d="M16.6799 13.333C18.8891 13.333 20.6799 11.5421 20.6799 9.33301C20.6799 7.12387 18.8891 5.33301 16.6799 5.33301C14.4708 5.33301 12.6799 7.12387 12.6799 9.33301C12.6799 11.5421 14.4708 13.333 16.6799 13.333Z" stroke="black" stroke-width="2"/>
</svg>
