<svg width="20" height="21" viewBox="0 0 20 21" fill="none" xmlns="http://www.w3.org/2000/svg">
<path d="M9.99996 14.6667C10.2361 14.6667 10.434 14.5869 10.5937 14.4272C10.7534 14.2674 10.8333 14.0695 10.8333 13.8334V10.5001C10.8333 10.264 10.7534 10.0661 10.5937 9.90633C10.434 9.74661 10.2361 9.66675 9.99996 9.66675C9.76385 9.66675 9.56593 9.74661 9.40621 9.90633C9.24649 10.0661 9.16663 10.264 9.16663 10.5001V13.8334C9.16663 14.0695 9.24649 14.2674 9.40621 14.4272C9.56593 14.5869 9.76385 14.6667 9.99996 14.6667ZM9.99996 8.00008C10.2361 8.00008 10.434 7.92022 10.5937 7.7605C10.7534 7.60078 10.8333 7.40286 10.8333 7.16675C10.8333 6.93064 10.7534 6.73272 10.5937 6.573C10.434 6.41328 10.2361 6.33341 9.99996 6.33341C9.76385 6.33341 9.56593 6.41328 9.40621 6.573C9.24649 6.73272 9.16663 6.93064 9.16663 7.16675C9.16663 7.40286 9.24649 7.60078 9.40621 7.7605C9.56593 7.92022 9.76385 8.00008 9.99996 8.00008ZM9.99996 18.8334C8.84718 18.8334 7.76385 18.6147 6.74996 18.1772C5.73607 17.7397 4.85413 17.1459 4.10413 16.3959C3.35413 15.6459 2.76038 14.764 2.32288 13.7501C1.88538 12.7362 1.66663 11.6529 1.66663 10.5001C1.66663 9.3473 1.88538 8.26397 2.32288 7.25008C2.76038 6.23619 3.35413 5.35425 4.10413 4.60425C4.85413 3.85425 5.73607 3.2605 6.74996 2.823C7.76385 2.3855 8.84718 2.16675 9.99996 2.16675C11.1527 2.16675 12.2361 2.3855 13.25 2.823C14.2638 3.2605 15.1458 3.85425 15.8958 4.60425C16.6458 5.35425 17.2395 6.23619 17.677 7.25008C18.1145 8.26397 18.3333 9.3473 18.3333 10.5001C18.3333 11.6529 18.1145 12.7362 17.677 13.7501C17.2395 14.764 16.6458 15.6459 15.8958 16.3959C15.1458 17.1459 14.2638 17.7397 13.25 18.1772C12.2361 18.6147 11.1527 18.8334 9.99996 18.8334ZM9.99996 17.1667C11.8611 17.1667 13.4375 16.5209 14.7291 15.2292C16.0208 13.9376 16.6666 12.3612 16.6666 10.5001C16.6666 8.63897 16.0208 7.06258 14.7291 5.77091C13.4375 4.47925 11.8611 3.83341 9.99996 3.83341C8.13885 3.83341 6.56246 4.47925 5.27079 5.77091C3.97913 7.06258 3.33329 8.63897 3.33329 10.5001C3.33329 12.3612 3.97913 13.9376 5.27079 15.2292C6.56246 16.5209 8.13885 17.1667 9.99996 17.1667Z" fill="#777777"/>
</svg>
