<svg width="32" height="32" viewBox="0 0 32 32" fill="none" xmlns="http://www.w3.org/2000/svg">
<path d="M30.0064 31.5697L25.6155 27.1789H4.5001V23.4734C4.5001 22.6573 4.72177 21.9015 5.1651 21.2059C5.60844 20.5104 6.20094 19.9757 6.9426 19.6018C8.29927 18.9309 9.66622 18.4064 11.0434 18.028C12.4207 17.65 13.808 17.4011 15.2055 17.2814H15.4697C15.5605 17.2814 15.6487 17.2866 15.7343 17.2972L0.429688 1.99302L2.21177 0.210938L31.7884 29.7876L30.0064 31.5697ZM7.0001 24.6789H23.1155L18.1955 19.7589C17.9797 19.7375 17.7805 19.7187 17.598 19.7026C17.4152 19.6868 17.2159 19.6789 17.0001 19.6789C15.4765 19.6789 13.9695 19.8609 12.4793 20.2251C10.989 20.5896 9.5258 21.1254 8.08969 21.8326C7.75441 22.0143 7.48899 22.2487 7.29344 22.5359C7.09788 22.8234 7.0001 23.1359 7.0001 23.4734V24.6789ZM27.4105 19.778C27.9061 20.0175 28.2991 20.3808 28.5897 20.868C28.8802 21.355 29.0341 21.8805 29.0514 22.4447L25.6155 19.0089C25.9233 19.1286 26.2268 19.2483 26.5259 19.368C26.8248 19.4877 27.1197 19.6244 27.4105 19.778ZM20.2339 13.5151L18.4009 11.6822C18.9862 11.4108 19.4547 11.0011 19.8064 10.453C20.1577 9.90469 20.3334 9.30469 20.3334 8.65302C20.3334 7.73635 20.0071 6.95163 19.3543 6.29885C18.7015 5.64608 17.9168 5.31969 17.0001 5.31969C16.3484 5.31969 15.7486 5.49552 15.2005 5.84719C14.6525 6.19858 14.2427 6.66705 13.9714 7.2526L12.138 5.41927C12.6914 4.59233 13.3927 3.95233 14.2422 3.49927C15.0916 3.04621 16.0109 2.81969 17.0001 2.81969C18.609 2.81969 19.9834 3.38969 21.1234 4.52969C22.2634 5.66969 22.8334 7.04413 22.8334 8.65302C22.8334 9.64247 22.6069 10.5618 22.1539 11.4109C21.7008 12.2604 21.0608 12.9618 20.2339 13.5151Z" fill="#8C8C8B"/>
</svg>
