<svg width="21" height="20" viewBox="0 0 21 20" fill="none" xmlns="http://www.w3.org/2000/svg">
<path d="M5.83325 3.96627C7.07518 2.74918 8.74725 2.07138 10.4861 2.08016C12.225 2.08894 13.8901 2.7836 15.1197 4.01317C16.3493 5.24275 17.0439 6.90789 17.0527 8.64674C17.0615 10.3856 16.3837 12.0577 15.1666 13.2996L11.6782 16.7879C11.3657 17.1004 10.9419 17.2759 10.4999 17.2759C10.058 17.2759 9.63413 17.1004 9.32158 16.7879L5.83325 13.2996C4.59565 12.0619 3.90039 10.3832 3.90039 8.63294C3.90039 6.88263 4.59565 5.20399 5.83325 3.96627Z" stroke="#C0A31D" stroke-width="1.5" stroke-linejoin="round"/>
<path d="M10.5 11.1328C11.8807 11.1328 13 10.0135 13 8.63281C13 7.2521 11.8807 6.13281 10.5 6.13281C9.11929 6.13281 8 7.2521 8 8.63281C8 10.0135 9.11929 11.1328 10.5 11.1328Z" stroke="#C0A31D" stroke-width="1.5" stroke-linecap="round" stroke-linejoin="round"/>
</svg>
